<?xml version="1.0" encoding="UTF-8" standalone="no"?>
<svg
   xmlns:dc="http://purl.org/dc/elements/1.1/"
   xmlns:cc="http://creativecommons.org/ns#"
   xmlns:rdf="http://www.w3.org/1999/02/22-rdf-syntax-ns#"
   xmlns:svg="http://www.w3.org/2000/svg"
   xmlns="http://www.w3.org/2000/svg"
   xmlns:sodipodi="http://sodipodi.sourceforge.net/DTD/sodipodi-0.dtd"
   xmlns:inkscape="http://www.inkscape.org/namespaces/inkscape"
   inkscape:version="1.0 (4035a4fb49, 2020-05-01)"
   sodipodi:docname="google.svg"
   xml:space="preserve"
   style="enable-background:new 0 0 455 455;"
   viewBox="0 0 455 455"
   y="0px"
   x="0px"
   id="Layer_1"
   version="1.1"><metadata
   id="metadata39"><rdf:RDF><cc:Work
       rdf:about=""><dc:format>image/svg+xml</dc:format><dc:type
         rdf:resource="http://purl.org/dc/dcmitype/StillImage" /></cc:Work></rdf:RDF></metadata><defs
   id="defs37" /><sodipodi:namedview
   inkscape:current-layer="Layer_1"
   inkscape:window-maximized="1"
   inkscape:window-y="-9"
   inkscape:window-x="-9"
   inkscape:cy="227.5"
   inkscape:cx="227.5"
   inkscape:zoom="1.8241758"
   showgrid="false"
   id="namedview35"
   inkscape:window-height="1001"
   inkscape:window-width="1920"
   inkscape:pageshadow="2"
   inkscape:pageopacity="0"
   guidetolerance="10"
   gridtolerance="10"
   objecttolerance="10"
   borderopacity="1"
   bordercolor="#666666"
   pagecolor="#ffffff" />
<path
   id="path2"
   d="M0,0v455h455V0H0z M161.682,342.682C97.509,342.682,46.5,291.672,46.5,227.5  s51.009-115.182,115.182-115.182c31.264,0,57.591,11.518,77.336,31.264L207.754,173.2c-8.227-8.227-23.036-18.1-46.073-18.1  c-39.49,0-70.754,32.909-70.754,72.4s31.264,72.4,70.754,72.4c46.073,0,62.527-32.909,65.818-49.364h-65.818v-39.491h108.6  c1.646,6.582,1.646,11.518,1.646,19.746C271.928,296.609,227.5,342.682,161.682,342.682z M408.5,243.955h-32.909v32.909h-32.91  v-32.909h-32.909v-32.909h32.909v-32.909h32.91v32.909H408.5V243.955z"
   style="fill-rule:evenodd;clip-rule:evenodd;fill:#ffffff" />
<g
   id="g4">
</g>
<g
   id="g6">
</g>
<g
   id="g8">
</g>
<g
   id="g10">
</g>
<g
   id="g12">
</g>
<g
   id="g14">
</g>
<g
   id="g16">
</g>
<g
   id="g18">
</g>
<g
   id="g20">
</g>
<g
   id="g22">
</g>
<g
   id="g24">
</g>
<g
   id="g26">
</g>
<g
   id="g28">
</g>
<g
   id="g30">
</g>
<g
   id="g32">
</g>
</svg>
