<?xml version="1.0" encoding="UTF-8" standalone="no"?>
<svg
   xmlns:dc="http://purl.org/dc/elements/1.1/"
   xmlns:cc="http://creativecommons.org/ns#"
   xmlns:rdf="http://www.w3.org/1999/02/22-rdf-syntax-ns#"
   xmlns:svg="http://www.w3.org/2000/svg"
   xmlns="http://www.w3.org/2000/svg"
   xmlns:sodipodi="http://sodipodi.sourceforge.net/DTD/sodipodi-0.dtd"
   xmlns:inkscape="http://www.inkscape.org/namespaces/inkscape"
   inkscape:version="1.0 (4035a4fb49, 2020-05-01)"
   sodipodi:docname="instagram.svg"
   xml:space="preserve"
   style="enable-background:new 0 0 455.73 455.73;"
   viewBox="0 0 455.73 455.73"
   y="0px"
   x="0px"
   id="Layer_1"
   version="1.1"><metadata
   id="metadata39"><rdf:RDF><cc:Work
       rdf:about=""><dc:format>image/svg+xml</dc:format><dc:type
         rdf:resource="http://purl.org/dc/dcmitype/StillImage" /></cc:Work></rdf:RDF></metadata><defs
   id="defs37" /><sodipodi:namedview
   inkscape:current-layer="Layer_1"
   inkscape:window-maximized="1"
   inkscape:window-y="-9"
   inkscape:window-x="-9"
   inkscape:cy="227.86501"
   inkscape:cx="227.86501"
   inkscape:zoom="1.8212538"
   showgrid="false"
   id="namedview35"
   inkscape:window-height="1001"
   inkscape:window-width="1920"
   inkscape:pageshadow="2"
   inkscape:pageopacity="0"
   guidetolerance="10"
   gridtolerance="10"
   objecttolerance="10"
   borderopacity="1"
   bordercolor="#666666"
   pagecolor="#ffffff" />
<path
   style="fill:#ffffff"
   id="path2"
   d="M227.86,182.55c-24.98,0-45.32,20.33-45.32,45.31c0,24.99,20.34,45.33,45.32,45.33c24.99,0,45.32-20.34,45.32-45.33  C273.18,202.88,252.85,182.55,227.86,182.55z M227.86,182.55c-24.98,0-45.32,20.33-45.32,45.31c0,24.99,20.34,45.33,45.32,45.33  c24.99,0,45.32-20.34,45.32-45.33C273.18,202.88,252.85,182.55,227.86,182.55z M303.36,108.66H152.37  c-24.1,0-43.71,19.61-43.71,43.71v150.99c0,24.1,19.61,43.71,43.71,43.71h150.99c24.1,0,43.71-19.61,43.71-43.71V152.37  C347.07,128.27,327.46,108.66,303.36,108.66z M227.86,306.35c-43.27,0-78.48-35.21-78.48-78.49c0-43.27,35.21-78.48,78.48-78.48  c43.28,0,78.49,35.21,78.49,78.48C306.35,271.14,271.14,306.35,227.86,306.35z M308.87,165.61c-10.24,0-18.57-8.33-18.57-18.57  s8.33-18.57,18.57-18.57s18.57,8.33,18.57,18.57S319.11,165.61,308.87,165.61z M227.86,182.55c-24.98,0-45.32,20.33-45.32,45.31  c0,24.99,20.34,45.33,45.32,45.33c24.99,0,45.32-20.34,45.32-45.33C273.18,202.88,252.85,182.55,227.86,182.55z M303.36,108.66  H152.37c-24.1,0-43.71,19.61-43.71,43.71v150.99c0,24.1,19.61,43.71,43.71,43.71h150.99c24.1,0,43.71-19.61,43.71-43.71V152.37  C347.07,128.27,327.46,108.66,303.36,108.66z M227.86,306.35c-43.27,0-78.48-35.21-78.48-78.49c0-43.27,35.21-78.48,78.48-78.48  c43.28,0,78.49,35.21,78.49,78.48C306.35,271.14,271.14,306.35,227.86,306.35z M308.87,165.61c-10.24,0-18.57-8.33-18.57-18.57  s8.33-18.57,18.57-18.57s18.57,8.33,18.57,18.57S319.11,165.61,308.87,165.61z M227.86,182.55c-24.98,0-45.32,20.33-45.32,45.31  c0,24.99,20.34,45.33,45.32,45.33c24.99,0,45.32-20.34,45.32-45.33C273.18,202.88,252.85,182.55,227.86,182.55z M0,0v455.73h455.73  V0H0z M380.23,303.36c0,42.39-34.48,76.87-76.87,76.87H152.37c-42.39,0-76.87-34.48-76.87-76.87V152.37  c0-42.39,34.48-76.87,76.87-76.87h150.99c42.39,0,76.87,34.48,76.87,76.87V303.36z M303.36,108.66H152.37  c-24.1,0-43.71,19.61-43.71,43.71v150.99c0,24.1,19.61,43.71,43.71,43.71h150.99c24.1,0,43.71-19.61,43.71-43.71V152.37  C347.07,128.27,327.46,108.66,303.36,108.66z M227.86,306.35c-43.27,0-78.48-35.21-78.48-78.49c0-43.27,35.21-78.48,78.48-78.48  c43.28,0,78.49,35.21,78.49,78.48C306.35,271.14,271.14,306.35,227.86,306.35z M308.87,165.61c-10.24,0-18.57-8.33-18.57-18.57  s8.33-18.57,18.57-18.57s18.57,8.33,18.57,18.57S319.11,165.61,308.87,165.61z M227.86,182.55c-24.98,0-45.32,20.33-45.32,45.31  c0,24.99,20.34,45.33,45.32,45.33c24.99,0,45.32-20.34,45.32-45.33C273.18,202.88,252.85,182.55,227.86,182.55z M227.86,182.55  c-24.98,0-45.32,20.33-45.32,45.31c0,24.99,20.34,45.33,45.32,45.33c24.99,0,45.32-20.34,45.32-45.33  C273.18,202.88,252.85,182.55,227.86,182.55z M227.86,182.55c-24.98,0-45.32,20.33-45.32,45.31c0,24.99,20.34,45.33,45.32,45.33  c24.99,0,45.32-20.34,45.32-45.33C273.18,202.88,252.85,182.55,227.86,182.55z M303.36,108.66H152.37  c-24.1,0-43.71,19.61-43.71,43.71v150.99c0,24.1,19.61,43.71,43.71,43.71h150.99c24.1,0,43.71-19.61,43.71-43.71V152.37  C347.07,128.27,327.46,108.66,303.36,108.66z M227.86,306.35c-43.27,0-78.48-35.21-78.48-78.49c0-43.27,35.21-78.48,78.48-78.48  c43.28,0,78.49,35.21,78.49,78.48C306.35,271.14,271.14,306.35,227.86,306.35z M308.87,165.61c-10.24,0-18.57-8.33-18.57-18.57  s8.33-18.57,18.57-18.57s18.57,8.33,18.57,18.57S319.11,165.61,308.87,165.61z M227.86,182.55c-24.98,0-45.32,20.33-45.32,45.31  c0,24.99,20.34,45.33,45.32,45.33c24.99,0,45.32-20.34,45.32-45.33C273.18,202.88,252.85,182.55,227.86,182.55z M227.86,182.55  c-24.98,0-45.32,20.33-45.32,45.31c0,24.99,20.34,45.33,45.32,45.33c24.99,0,45.32-20.34,45.32-45.33  C273.18,202.88,252.85,182.55,227.86,182.55z M227.86,182.55c-24.98,0-45.32,20.33-45.32,45.31c0,24.99,20.34,45.33,45.32,45.33  c24.99,0,45.32-20.34,45.32-45.33C273.18,202.88,252.85,182.55,227.86,182.55z M303.36,108.66H152.37  c-24.1,0-43.71,19.61-43.71,43.71v150.99c0,24.1,19.61,43.71,43.71,43.71h150.99c24.1,0,43.71-19.61,43.71-43.71V152.37  C347.07,128.27,327.46,108.66,303.36,108.66z M227.86,306.35c-43.27,0-78.48-35.21-78.48-78.49c0-43.27,35.21-78.48,78.48-78.48  c43.28,0,78.49,35.21,78.49,78.48C306.35,271.14,271.14,306.35,227.86,306.35z M308.87,165.61c-10.24,0-18.57-8.33-18.57-18.57  s8.33-18.57,18.57-18.57s18.57,8.33,18.57,18.57S319.11,165.61,308.87,165.61z M227.86,182.55c-24.98,0-45.32,20.33-45.32,45.31  c0,24.99,20.34,45.33,45.32,45.33c24.99,0,45.32-20.34,45.32-45.33C273.18,202.88,252.85,182.55,227.86,182.55z" />
<g
   id="g4">
</g>
<g
   id="g6">
</g>
<g
   id="g8">
</g>
<g
   id="g10">
</g>
<g
   id="g12">
</g>
<g
   id="g14">
</g>
<g
   id="g16">
</g>
<g
   id="g18">
</g>
<g
   id="g20">
</g>
<g
   id="g22">
</g>
<g
   id="g24">
</g>
<g
   id="g26">
</g>
<g
   id="g28">
</g>
<g
   id="g30">
</g>
<g
   id="g32">
</g>
</svg>
